M48
; DRILL file {KiCad 8.0.3-8.0.3-0~ubuntu22.04.1} date 2024-07-13T12:54:07+0200
; FORMAT={-:-/ absolute / metric / decimal}
; #@! TF.CreationDate,2024-07-13T12:54:07+02:00
; #@! TF.GenerationSoftware,Kicad,Pcbnew,8.0.3-8.0.3-0~ubuntu22.04.1
; #@! TF.FileFunction,Plated,1,2,PTH
FMAT,2
METRIC
; #@! TA.AperFunction,Plated,PTH,ComponentDrill
T1C0.800
; #@! TA.AperFunction,Plated,PTH,ComponentDrill
T2C0.838
; #@! TA.AperFunction,Plated,PTH,ComponentDrill
T3C0.900
; #@! TA.AperFunction,Plated,PTH,ComponentDrill
T4C1.000
%
G90
G05
T1
X124.46Y-134.62
X124.46Y-142.24
X147.32Y-134.62
X147.32Y-142.24
T2
X129.746Y-135.999
X130.104Y-133.06
X130.797Y-138.77
X131.785Y-130.622
X133.015Y-140.734
X134.409Y-129.245
X135.89Y-141.442
X137.371Y-129.245
X138.765Y-140.734
X139.995Y-130.622
X140.983Y-138.77
X141.676Y-133.06
X142.034Y-135.999
T3
X134.62Y-135.255
X137.16Y-135.255
T4
X124.46Y-124.46
X124.46Y-147.32
X127.0Y-124.46
X127.0Y-147.32
X129.54Y-124.46
X129.54Y-147.32
X132.08Y-124.46
X132.08Y-147.32
X134.62Y-124.46
X134.62Y-147.32
X137.16Y-124.46
X139.7Y-124.46
X142.24Y-124.46
X144.78Y-124.46
X147.32Y-124.46
M30
