%TF.GenerationSoftware,KiCad,Pcbnew,8.0.3-8.0.3-0~ubuntu22.04.1*%
%TF.CreationDate,2024-07-13T12:54:05+02:00*%
%TF.ProjectId,nixie_breadboard,6e697869-655f-4627-9265-6164626f6172,rev?*%
%TF.SameCoordinates,Original*%
%TF.FileFunction,Legend,Top*%
%TF.FilePolarity,Positive*%
%FSLAX46Y46*%
G04 Gerber Fmt 4.6, Leading zero omitted, Abs format (unit mm)*
G04 Created by KiCad (PCBNEW 8.0.3-8.0.3-0~ubuntu22.04.1) date 2024-07-13 12:54:05*
%MOMM*%
%LPD*%
G01*
G04 APERTURE LIST*
%ADD10C,0.300000*%
%ADD11C,0.200000*%
%ADD12C,0.101600*%
%ADD13C,0.150000*%
%ADD14C,0.254000*%
%ADD15C,0.120000*%
G04 APERTURE END LIST*
D10*
X126571429Y-126448185D02*
X126642857Y-126376757D01*
X126642857Y-126376757D02*
X126785715Y-126305328D01*
X126785715Y-126305328D02*
X127142857Y-126305328D01*
X127142857Y-126305328D02*
X127285715Y-126376757D01*
X127285715Y-126376757D02*
X127357143Y-126448185D01*
X127357143Y-126448185D02*
X127428572Y-126591042D01*
X127428572Y-126591042D02*
X127428572Y-126733900D01*
X127428572Y-126733900D02*
X127357143Y-126948185D01*
X127357143Y-126948185D02*
X126500000Y-127805328D01*
X126500000Y-127805328D02*
X127428572Y-127805328D01*
X144494286Y-127805328D02*
X144780000Y-127805328D01*
X144780000Y-127805328D02*
X144922857Y-127733900D01*
X144922857Y-127733900D02*
X144994286Y-127662471D01*
X144994286Y-127662471D02*
X145137143Y-127448185D01*
X145137143Y-127448185D02*
X145208572Y-127162471D01*
X145208572Y-127162471D02*
X145208572Y-126591042D01*
X145208572Y-126591042D02*
X145137143Y-126448185D01*
X145137143Y-126448185D02*
X145065715Y-126376757D01*
X145065715Y-126376757D02*
X144922857Y-126305328D01*
X144922857Y-126305328D02*
X144637143Y-126305328D01*
X144637143Y-126305328D02*
X144494286Y-126376757D01*
X144494286Y-126376757D02*
X144422857Y-126448185D01*
X144422857Y-126448185D02*
X144351429Y-126591042D01*
X144351429Y-126591042D02*
X144351429Y-126948185D01*
X144351429Y-126948185D02*
X144422857Y-127091042D01*
X144422857Y-127091042D02*
X144494286Y-127162471D01*
X144494286Y-127162471D02*
X144637143Y-127233900D01*
X144637143Y-127233900D02*
X144922857Y-127233900D01*
X144922857Y-127233900D02*
X145065715Y-127162471D01*
X145065715Y-127162471D02*
X145137143Y-127091042D01*
X145137143Y-127091042D02*
X145208572Y-126948185D01*
X132365715Y-126805328D02*
X132365715Y-127805328D01*
X132008572Y-126233900D02*
X131651429Y-127305328D01*
X131651429Y-127305328D02*
X132580000Y-127305328D01*
X134977143Y-126305328D02*
X134262857Y-126305328D01*
X134262857Y-126305328D02*
X134191429Y-127019614D01*
X134191429Y-127019614D02*
X134262857Y-126948185D01*
X134262857Y-126948185D02*
X134405715Y-126876757D01*
X134405715Y-126876757D02*
X134762857Y-126876757D01*
X134762857Y-126876757D02*
X134905715Y-126948185D01*
X134905715Y-126948185D02*
X134977143Y-127019614D01*
X134977143Y-127019614D02*
X135048572Y-127162471D01*
X135048572Y-127162471D02*
X135048572Y-127519614D01*
X135048572Y-127519614D02*
X134977143Y-127662471D01*
X134977143Y-127662471D02*
X134905715Y-127733900D01*
X134905715Y-127733900D02*
X134762857Y-127805328D01*
X134762857Y-127805328D02*
X134405715Y-127805328D01*
X134405715Y-127805328D02*
X134262857Y-127733900D01*
X134262857Y-127733900D02*
X134191429Y-127662471D01*
D11*
X134381905Y-144946504D02*
X134858095Y-144946504D01*
X134286667Y-145232219D02*
X134620000Y-144232219D01*
X134620000Y-144232219D02*
X134953333Y-145232219D01*
X132532219Y-144978285D02*
X132532219Y-145454475D01*
X132532219Y-145454475D02*
X131532219Y-145454475D01*
X132532219Y-144644951D02*
X131532219Y-144644951D01*
X132008409Y-144644951D02*
X132008409Y-144073523D01*
X132532219Y-144073523D02*
X131532219Y-144073523D01*
X132532219Y-143597332D02*
X131532219Y-143597332D01*
X131532219Y-143597332D02*
X131532219Y-143359237D01*
X131532219Y-143359237D02*
X131579838Y-143216380D01*
X131579838Y-143216380D02*
X131675076Y-143121142D01*
X131675076Y-143121142D02*
X131770314Y-143073523D01*
X131770314Y-143073523D02*
X131960790Y-143025904D01*
X131960790Y-143025904D02*
X132103647Y-143025904D01*
X132103647Y-143025904D02*
X132294123Y-143073523D01*
X132294123Y-143073523D02*
X132389361Y-143121142D01*
X132389361Y-143121142D02*
X132484600Y-143216380D01*
X132484600Y-143216380D02*
X132532219Y-143359237D01*
X132532219Y-143359237D02*
X132532219Y-143597332D01*
X132532219Y-142597332D02*
X131532219Y-142597332D01*
X131532219Y-142597332D02*
X131532219Y-142216380D01*
X131532219Y-142216380D02*
X131579838Y-142121142D01*
X131579838Y-142121142D02*
X131627457Y-142073523D01*
X131627457Y-142073523D02*
X131722695Y-142025904D01*
X131722695Y-142025904D02*
X131865552Y-142025904D01*
X131865552Y-142025904D02*
X131960790Y-142073523D01*
X131960790Y-142073523D02*
X132008409Y-142121142D01*
X132008409Y-142121142D02*
X132056028Y-142216380D01*
X132056028Y-142216380D02*
X132056028Y-142597332D01*
X124039219Y-144970476D02*
X124039219Y-145446666D01*
X124039219Y-145446666D02*
X124515409Y-145494285D01*
X124515409Y-145494285D02*
X124467790Y-145446666D01*
X124467790Y-145446666D02*
X124420171Y-145351428D01*
X124420171Y-145351428D02*
X124420171Y-145113333D01*
X124420171Y-145113333D02*
X124467790Y-145018095D01*
X124467790Y-145018095D02*
X124515409Y-144970476D01*
X124515409Y-144970476D02*
X124610647Y-144922857D01*
X124610647Y-144922857D02*
X124848742Y-144922857D01*
X124848742Y-144922857D02*
X124943980Y-144970476D01*
X124943980Y-144970476D02*
X124991600Y-145018095D01*
X124991600Y-145018095D02*
X125039219Y-145113333D01*
X125039219Y-145113333D02*
X125039219Y-145351428D01*
X125039219Y-145351428D02*
X124991600Y-145446666D01*
X124991600Y-145446666D02*
X124943980Y-145494285D01*
X124039219Y-144637142D02*
X125039219Y-144303809D01*
X125039219Y-144303809D02*
X124039219Y-143970476D01*
D10*
X139200000Y-126305328D02*
X140200000Y-126305328D01*
X140200000Y-126305328D02*
X139557143Y-127805328D01*
X147248572Y-126305328D02*
X147391429Y-126305328D01*
X147391429Y-126305328D02*
X147534286Y-126376757D01*
X147534286Y-126376757D02*
X147605715Y-126448185D01*
X147605715Y-126448185D02*
X147677143Y-126591042D01*
X147677143Y-126591042D02*
X147748572Y-126876757D01*
X147748572Y-126876757D02*
X147748572Y-127233900D01*
X147748572Y-127233900D02*
X147677143Y-127519614D01*
X147677143Y-127519614D02*
X147605715Y-127662471D01*
X147605715Y-127662471D02*
X147534286Y-127733900D01*
X147534286Y-127733900D02*
X147391429Y-127805328D01*
X147391429Y-127805328D02*
X147248572Y-127805328D01*
X147248572Y-127805328D02*
X147105715Y-127733900D01*
X147105715Y-127733900D02*
X147034286Y-127662471D01*
X147034286Y-127662471D02*
X146962857Y-127519614D01*
X146962857Y-127519614D02*
X146891429Y-127233900D01*
X146891429Y-127233900D02*
X146891429Y-126876757D01*
X146891429Y-126876757D02*
X146962857Y-126591042D01*
X146962857Y-126591042D02*
X147034286Y-126448185D01*
X147034286Y-126448185D02*
X147105715Y-126376757D01*
X147105715Y-126376757D02*
X147248572Y-126305328D01*
X142097143Y-126948185D02*
X141954286Y-126876757D01*
X141954286Y-126876757D02*
X141882857Y-126805328D01*
X141882857Y-126805328D02*
X141811429Y-126662471D01*
X141811429Y-126662471D02*
X141811429Y-126591042D01*
X141811429Y-126591042D02*
X141882857Y-126448185D01*
X141882857Y-126448185D02*
X141954286Y-126376757D01*
X141954286Y-126376757D02*
X142097143Y-126305328D01*
X142097143Y-126305328D02*
X142382857Y-126305328D01*
X142382857Y-126305328D02*
X142525715Y-126376757D01*
X142525715Y-126376757D02*
X142597143Y-126448185D01*
X142597143Y-126448185D02*
X142668572Y-126591042D01*
X142668572Y-126591042D02*
X142668572Y-126662471D01*
X142668572Y-126662471D02*
X142597143Y-126805328D01*
X142597143Y-126805328D02*
X142525715Y-126876757D01*
X142525715Y-126876757D02*
X142382857Y-126948185D01*
X142382857Y-126948185D02*
X142097143Y-126948185D01*
X142097143Y-126948185D02*
X141954286Y-127019614D01*
X141954286Y-127019614D02*
X141882857Y-127091042D01*
X141882857Y-127091042D02*
X141811429Y-127233900D01*
X141811429Y-127233900D02*
X141811429Y-127519614D01*
X141811429Y-127519614D02*
X141882857Y-127662471D01*
X141882857Y-127662471D02*
X141954286Y-127733900D01*
X141954286Y-127733900D02*
X142097143Y-127805328D01*
X142097143Y-127805328D02*
X142382857Y-127805328D01*
X142382857Y-127805328D02*
X142525715Y-127733900D01*
X142525715Y-127733900D02*
X142597143Y-127662471D01*
X142597143Y-127662471D02*
X142668572Y-127519614D01*
X142668572Y-127519614D02*
X142668572Y-127233900D01*
X142668572Y-127233900D02*
X142597143Y-127091042D01*
X142597143Y-127091042D02*
X142525715Y-127019614D01*
X142525715Y-127019614D02*
X142382857Y-126948185D01*
D11*
X126499838Y-144906904D02*
X126452219Y-145002142D01*
X126452219Y-145002142D02*
X126452219Y-145144999D01*
X126452219Y-145144999D02*
X126499838Y-145287856D01*
X126499838Y-145287856D02*
X126595076Y-145383094D01*
X126595076Y-145383094D02*
X126690314Y-145430713D01*
X126690314Y-145430713D02*
X126880790Y-145478332D01*
X126880790Y-145478332D02*
X127023647Y-145478332D01*
X127023647Y-145478332D02*
X127214123Y-145430713D01*
X127214123Y-145430713D02*
X127309361Y-145383094D01*
X127309361Y-145383094D02*
X127404600Y-145287856D01*
X127404600Y-145287856D02*
X127452219Y-145144999D01*
X127452219Y-145144999D02*
X127452219Y-145049761D01*
X127452219Y-145049761D02*
X127404600Y-144906904D01*
X127404600Y-144906904D02*
X127356980Y-144859285D01*
X127356980Y-144859285D02*
X127023647Y-144859285D01*
X127023647Y-144859285D02*
X127023647Y-145049761D01*
X127452219Y-144430713D02*
X126452219Y-144430713D01*
X126452219Y-144430713D02*
X127452219Y-143859285D01*
X127452219Y-143859285D02*
X126452219Y-143859285D01*
X127452219Y-143383094D02*
X126452219Y-143383094D01*
X126452219Y-143383094D02*
X126452219Y-143144999D01*
X126452219Y-143144999D02*
X126499838Y-143002142D01*
X126499838Y-143002142D02*
X126595076Y-142906904D01*
X126595076Y-142906904D02*
X126690314Y-142859285D01*
X126690314Y-142859285D02*
X126880790Y-142811666D01*
X126880790Y-142811666D02*
X127023647Y-142811666D01*
X127023647Y-142811666D02*
X127214123Y-142859285D01*
X127214123Y-142859285D02*
X127309361Y-142906904D01*
X127309361Y-142906904D02*
X127404600Y-143002142D01*
X127404600Y-143002142D02*
X127452219Y-143144999D01*
X127452219Y-143144999D02*
X127452219Y-143383094D01*
X129992219Y-144851285D02*
X129516028Y-145184618D01*
X129992219Y-145422713D02*
X128992219Y-145422713D01*
X128992219Y-145422713D02*
X128992219Y-145041761D01*
X128992219Y-145041761D02*
X129039838Y-144946523D01*
X129039838Y-144946523D02*
X129087457Y-144898904D01*
X129087457Y-144898904D02*
X129182695Y-144851285D01*
X129182695Y-144851285D02*
X129325552Y-144851285D01*
X129325552Y-144851285D02*
X129420790Y-144898904D01*
X129420790Y-144898904D02*
X129468409Y-144946523D01*
X129468409Y-144946523D02*
X129516028Y-145041761D01*
X129516028Y-145041761D02*
X129516028Y-145422713D01*
X129992219Y-144422713D02*
X128992219Y-144422713D01*
X129468409Y-144422713D02*
X129468409Y-143851285D01*
X129992219Y-143851285D02*
X128992219Y-143851285D01*
X129992219Y-143375094D02*
X128992219Y-143375094D01*
X128992219Y-143375094D02*
X128992219Y-143136999D01*
X128992219Y-143136999D02*
X129039838Y-142994142D01*
X129039838Y-142994142D02*
X129135076Y-142898904D01*
X129135076Y-142898904D02*
X129230314Y-142851285D01*
X129230314Y-142851285D02*
X129420790Y-142803666D01*
X129420790Y-142803666D02*
X129563647Y-142803666D01*
X129563647Y-142803666D02*
X129754123Y-142851285D01*
X129754123Y-142851285D02*
X129849361Y-142898904D01*
X129849361Y-142898904D02*
X129944600Y-142994142D01*
X129944600Y-142994142D02*
X129992219Y-143136999D01*
X129992219Y-143136999D02*
X129992219Y-143375094D01*
X129992219Y-142375094D02*
X128992219Y-142375094D01*
X128992219Y-142375094D02*
X128992219Y-141994142D01*
X128992219Y-141994142D02*
X129039838Y-141898904D01*
X129039838Y-141898904D02*
X129087457Y-141851285D01*
X129087457Y-141851285D02*
X129182695Y-141803666D01*
X129182695Y-141803666D02*
X129325552Y-141803666D01*
X129325552Y-141803666D02*
X129420790Y-141851285D01*
X129420790Y-141851285D02*
X129468409Y-141898904D01*
X129468409Y-141898904D02*
X129516028Y-141994142D01*
X129516028Y-141994142D02*
X129516028Y-142375094D01*
D10*
X124888572Y-127805328D02*
X124031429Y-127805328D01*
X124460000Y-127805328D02*
X124460000Y-126305328D01*
X124460000Y-126305328D02*
X124317143Y-126519614D01*
X124317143Y-126519614D02*
X124174286Y-126662471D01*
X124174286Y-126662471D02*
X124031429Y-126733900D01*
X129040000Y-126305328D02*
X129968572Y-126305328D01*
X129968572Y-126305328D02*
X129468572Y-126876757D01*
X129468572Y-126876757D02*
X129682857Y-126876757D01*
X129682857Y-126876757D02*
X129825715Y-126948185D01*
X129825715Y-126948185D02*
X129897143Y-127019614D01*
X129897143Y-127019614D02*
X129968572Y-127162471D01*
X129968572Y-127162471D02*
X129968572Y-127519614D01*
X129968572Y-127519614D02*
X129897143Y-127662471D01*
X129897143Y-127662471D02*
X129825715Y-127733900D01*
X129825715Y-127733900D02*
X129682857Y-127805328D01*
X129682857Y-127805328D02*
X129254286Y-127805328D01*
X129254286Y-127805328D02*
X129111429Y-127733900D01*
X129111429Y-127733900D02*
X129040000Y-127662471D01*
X137445715Y-126305328D02*
X137160000Y-126305328D01*
X137160000Y-126305328D02*
X137017143Y-126376757D01*
X137017143Y-126376757D02*
X136945715Y-126448185D01*
X136945715Y-126448185D02*
X136802857Y-126662471D01*
X136802857Y-126662471D02*
X136731429Y-126948185D01*
X136731429Y-126948185D02*
X136731429Y-127519614D01*
X136731429Y-127519614D02*
X136802857Y-127662471D01*
X136802857Y-127662471D02*
X136874286Y-127733900D01*
X136874286Y-127733900D02*
X137017143Y-127805328D01*
X137017143Y-127805328D02*
X137302857Y-127805328D01*
X137302857Y-127805328D02*
X137445715Y-127733900D01*
X137445715Y-127733900D02*
X137517143Y-127662471D01*
X137517143Y-127662471D02*
X137588572Y-127519614D01*
X137588572Y-127519614D02*
X137588572Y-127162471D01*
X137588572Y-127162471D02*
X137517143Y-127019614D01*
X137517143Y-127019614D02*
X137445715Y-126948185D01*
X137445715Y-126948185D02*
X137302857Y-126876757D01*
X137302857Y-126876757D02*
X137017143Y-126876757D01*
X137017143Y-126876757D02*
X136874286Y-126948185D01*
X136874286Y-126948185D02*
X136802857Y-127019614D01*
X136802857Y-127019614D02*
X136731429Y-127162471D01*
D12*
X140409242Y-136222619D02*
X139139242Y-136222619D01*
X139139242Y-136222619D02*
X140409242Y-135496904D01*
X140409242Y-135496904D02*
X139139242Y-135496904D01*
X140409242Y-134226904D02*
X140409242Y-134952619D01*
X140409242Y-134589762D02*
X139139242Y-134589762D01*
X139139242Y-134589762D02*
X139320670Y-134710714D01*
X139320670Y-134710714D02*
X139441623Y-134831666D01*
X139441623Y-134831666D02*
X139502099Y-134952619D01*
D13*
X139046857Y-145477231D02*
X139046857Y-143953231D01*
X139772571Y-145477231D02*
X139772571Y-143953231D01*
X139772571Y-143953231D02*
X140643428Y-145477231D01*
X140643428Y-145477231D02*
X140643428Y-143953231D01*
X141369142Y-144896660D02*
X142530285Y-144896660D01*
X144054284Y-145477231D02*
X143183427Y-145477231D01*
X143618856Y-145477231D02*
X143618856Y-143953231D01*
X143618856Y-143953231D02*
X143473713Y-144170945D01*
X143473713Y-144170945D02*
X143328570Y-144316088D01*
X143328570Y-144316088D02*
X143183427Y-144388660D01*
X145360571Y-144461231D02*
X145360571Y-145477231D01*
X144997713Y-143880660D02*
X144634856Y-144969231D01*
X144634856Y-144969231D02*
X145578285Y-144969231D01*
X135151905Y-138669819D02*
X135151905Y-137669819D01*
X135151905Y-137669819D02*
X135390000Y-137669819D01*
X135390000Y-137669819D02*
X135532857Y-137717438D01*
X135532857Y-137717438D02*
X135628095Y-137812676D01*
X135628095Y-137812676D02*
X135675714Y-137907914D01*
X135675714Y-137907914D02*
X135723333Y-138098390D01*
X135723333Y-138098390D02*
X135723333Y-138241247D01*
X135723333Y-138241247D02*
X135675714Y-138431723D01*
X135675714Y-138431723D02*
X135628095Y-138526961D01*
X135628095Y-138526961D02*
X135532857Y-138622200D01*
X135532857Y-138622200D02*
X135390000Y-138669819D01*
X135390000Y-138669819D02*
X135151905Y-138669819D01*
X136675714Y-138669819D02*
X136104286Y-138669819D01*
X136390000Y-138669819D02*
X136390000Y-137669819D01*
X136390000Y-137669819D02*
X136294762Y-137812676D01*
X136294762Y-137812676D02*
X136199524Y-137907914D01*
X136199524Y-137907914D02*
X136104286Y-137955533D01*
X147774819Y-132246666D02*
X147298628Y-132579999D01*
X147774819Y-132818094D02*
X146774819Y-132818094D01*
X146774819Y-132818094D02*
X146774819Y-132437142D01*
X146774819Y-132437142D02*
X146822438Y-132341904D01*
X146822438Y-132341904D02*
X146870057Y-132294285D01*
X146870057Y-132294285D02*
X146965295Y-132246666D01*
X146965295Y-132246666D02*
X147108152Y-132246666D01*
X147108152Y-132246666D02*
X147203390Y-132294285D01*
X147203390Y-132294285D02*
X147251009Y-132341904D01*
X147251009Y-132341904D02*
X147298628Y-132437142D01*
X147298628Y-132437142D02*
X147298628Y-132818094D01*
X147774819Y-131294285D02*
X147774819Y-131865713D01*
X147774819Y-131579999D02*
X146774819Y-131579999D01*
X146774819Y-131579999D02*
X146917676Y-131675237D01*
X146917676Y-131675237D02*
X147012914Y-131770475D01*
X147012914Y-131770475D02*
X147060533Y-131865713D01*
X124914819Y-132246666D02*
X124438628Y-132579999D01*
X124914819Y-132818094D02*
X123914819Y-132818094D01*
X123914819Y-132818094D02*
X123914819Y-132437142D01*
X123914819Y-132437142D02*
X123962438Y-132341904D01*
X123962438Y-132341904D02*
X124010057Y-132294285D01*
X124010057Y-132294285D02*
X124105295Y-132246666D01*
X124105295Y-132246666D02*
X124248152Y-132246666D01*
X124248152Y-132246666D02*
X124343390Y-132294285D01*
X124343390Y-132294285D02*
X124391009Y-132341904D01*
X124391009Y-132341904D02*
X124438628Y-132437142D01*
X124438628Y-132437142D02*
X124438628Y-132818094D01*
X124010057Y-131865713D02*
X123962438Y-131818094D01*
X123962438Y-131818094D02*
X123914819Y-131722856D01*
X123914819Y-131722856D02*
X123914819Y-131484761D01*
X123914819Y-131484761D02*
X123962438Y-131389523D01*
X123962438Y-131389523D02*
X124010057Y-131341904D01*
X124010057Y-131341904D02*
X124105295Y-131294285D01*
X124105295Y-131294285D02*
X124200533Y-131294285D01*
X124200533Y-131294285D02*
X124343390Y-131341904D01*
X124343390Y-131341904D02*
X124914819Y-131913332D01*
X124914819Y-131913332D02*
X124914819Y-131294285D01*
D14*
%TO.C,N1*%
X128270000Y-135412480D02*
G75*
G02*
X143510000Y-135255000I7620000J78740D01*
G01*
X144762220Y-135255000D02*
G75*
G02*
X127017780Y-135255000I-8872220J0D01*
G01*
X127017780Y-135255000D02*
G75*
G02*
X144762220Y-135255000I8872220J0D01*
G01*
D15*
%TO.C,D1*%
X137450000Y-134175000D02*
X137450000Y-134019000D01*
X137450000Y-136491000D02*
X137450000Y-136335000D01*
X134217665Y-134176392D02*
G75*
G02*
X137450000Y-134019484I1672335J-1078608D01*
G01*
X134848870Y-134175163D02*
G75*
G02*
X136930961Y-134175000I1041130J-1079837D01*
G01*
X136930961Y-136335000D02*
G75*
G02*
X134848870Y-136334837I-1040961J1080000D01*
G01*
X137450000Y-136490516D02*
G75*
G02*
X134217665Y-136333608I-1560000J1235516D01*
G01*
%TO.C,R1*%
X146010000Y-135220000D02*
X146010000Y-141640000D01*
X146010000Y-141640000D02*
X146340000Y-141640000D01*
X146340000Y-135220000D02*
X146010000Y-135220000D01*
X148300000Y-135220000D02*
X148630000Y-135220000D01*
X148630000Y-135220000D02*
X148630000Y-141640000D01*
X148630000Y-141640000D02*
X148300000Y-141640000D01*
%TO.C,R2*%
X123150000Y-135220000D02*
X123480000Y-135220000D01*
X123150000Y-141640000D02*
X123150000Y-135220000D01*
X123480000Y-141640000D02*
X123150000Y-141640000D01*
X125440000Y-141640000D02*
X125770000Y-141640000D01*
X125770000Y-135220000D02*
X125440000Y-135220000D01*
X125770000Y-141640000D02*
X125770000Y-135220000D01*
%TD*%
M02*
