M48
; DRILL file {KiCad 8.0.3-8.0.3-0~ubuntu22.04.1} date 2024-07-02T20:32:45+0200
; FORMAT={-:-/ absolute / metric / decimal}
; #@! TF.CreationDate,2024-07-02T20:32:45+02:00
; #@! TF.GenerationSoftware,Kicad,Pcbnew,8.0.3-8.0.3-0~ubuntu22.04.1
; #@! TF.FileFunction,Plated,1,2,PTH
FMAT,2
METRIC
; #@! TA.AperFunction,Plated,PTH,ViaDrill
T1C0.400
; #@! TA.AperFunction,Plated,PTH,ComponentDrill
T2C0.700
; #@! TA.AperFunction,Plated,PTH,ComponentDrill
T3C0.750
; #@! TA.AperFunction,Plated,PTH,ComponentDrill
T4C0.800
; #@! TA.AperFunction,Plated,PTH,ComponentDrill
T5C1.000
; #@! TA.AperFunction,Plated,PTH,ComponentDrill
T6C1.100
%
G90
G05
T1
X39.624Y-78.014
X42.291Y-79.03
X44.831Y-80.046
X47.371Y-81.062
X49.973Y-82.078
X52.451Y-83.094
X54.991Y-84.11
X57.531Y-85.126
X60.071Y-86.142
X62.611Y-87.158
X72.009Y-78.014
X74.549Y-79.03
X77.089Y-80.046
X79.629Y-81.062
X82.169Y-82.078
X84.709Y-83.094
X87.249Y-84.11
X89.789Y-85.146
X92.329Y-86.142
X94.869Y-87.158
X99.187Y-66.167
X106.782Y-78.029
X109.322Y-79.03
X111.862Y-80.046
X112.141Y-63.246
X114.366Y-81.062
X116.942Y-82.078
X117.094Y-67.563
X119.507Y-83.094
X122.047Y-84.11
X124.587Y-85.168
X127.127Y-86.142
X129.639Y-87.16
X131.826Y-77.978
X132.575Y-80.046
X133.35Y-87.158
X134.112Y-78.994
X134.874Y-83.185
X135.636Y-84.11
X136.398Y-82.078
X137.124Y-81.062
X137.922Y-85.217
X138.811Y-86.142
X139.7Y-77.978
X142.24Y-79.03
X144.78Y-80.046
X146.431Y-56.388
X146.431Y-41.91
X147.32Y-81.062
X149.86Y-82.078
X152.4Y-83.094
X152.4Y-63.373
X154.94Y-84.11
X157.543Y-85.189
X160.02Y-86.142
X162.306Y-40.259
X162.306Y-49.657
X162.56Y-87.158
X167.259Y-39.116
X167.259Y-43.307
T2
X90.043Y-49.428
X90.043Y-54.508
X90.17Y-33.02
X90.17Y-38.1
X93.345Y-33.02
X93.345Y-38.1
X93.345Y-49.428
X93.345Y-54.508
X96.266Y-49.428
X96.266Y-54.508
X96.393Y-33.02
X96.393Y-38.1
X102.743Y-49.428
X102.743Y-54.508
X102.87Y-33.02
X102.87Y-38.1
X106.045Y-49.428
X106.045Y-54.508
X106.172Y-33.02
X106.172Y-38.1
X109.093Y-33.02
X109.093Y-38.1
X109.22Y-49.555
X109.22Y-54.635
X121.285Y-27.178
X126.365Y-27.178
T3
X90.424Y-44.602
X90.551Y-28.194
X91.694Y-45.872
X91.821Y-29.464
X92.964Y-44.602
X93.091Y-28.194
X96.647Y-45.618
X96.774Y-29.21
X97.917Y-44.348
X98.044Y-27.94
X99.187Y-45.618
X99.314Y-29.21
X103.124Y-44.602
X103.251Y-28.194
X104.394Y-45.872
X104.521Y-29.464
X105.664Y-44.602
X105.791Y-28.194
X109.474Y-29.21
X109.601Y-45.618
X110.744Y-27.94
X110.871Y-44.348
X112.014Y-29.21
X112.141Y-45.618
X115.824Y-29.21
X117.094Y-27.94
X118.364Y-29.21
T4
X34.29Y-45.74
X34.29Y-48.24
X34.886Y-57.404
X37.386Y-57.404
X124.46Y-38.1
X124.46Y-45.72
X127.0Y-38.1
X127.0Y-45.72
X129.54Y-38.1
X129.54Y-45.72
X132.08Y-38.1
X132.08Y-45.72
X132.08Y-48.641
X134.58Y-48.641
X134.62Y-38.1
X134.62Y-45.72
X137.16Y-38.1
X137.16Y-45.72
X139.7Y-38.1
X139.7Y-45.72
X142.24Y-38.1
X142.24Y-45.72
T5
X39.703Y-89.223
X42.243Y-89.223
X44.783Y-89.223
X47.323Y-89.223
X49.863Y-89.223
X52.404Y-66.363
X52.404Y-89.223
X53.34Y-29.718
X53.34Y-32.258
X53.34Y-34.798
X54.944Y-66.363
X54.944Y-89.223
X57.483Y-66.363
X57.483Y-89.223
X60.023Y-66.363
X60.023Y-89.223
X62.563Y-66.363
X62.563Y-89.223
X71.979Y-88.9
X74.519Y-88.9
X77.059Y-88.9
X77.84Y-30.268
X77.84Y-32.808
X79.599Y-88.9
X82.139Y-88.9
X84.679Y-66.04
X84.679Y-88.9
X87.219Y-66.04
X87.219Y-88.9
X89.759Y-66.04
X89.759Y-88.9
X92.299Y-66.04
X92.299Y-88.9
X94.839Y-66.04
X94.839Y-88.9
X106.779Y-88.948
X109.319Y-88.948
X111.859Y-88.948
X114.399Y-88.948
X116.939Y-88.948
X119.479Y-66.088
X119.479Y-88.948
X122.019Y-66.088
X122.019Y-88.948
X124.559Y-66.088
X124.559Y-88.948
X127.099Y-66.088
X127.099Y-88.948
X129.639Y-66.088
X129.639Y-88.948
X139.7Y-88.9
X142.24Y-88.9
X144.78Y-88.9
X147.32Y-88.9
X148.59Y-33.02
X148.59Y-35.56
X148.59Y-38.1
X148.59Y-40.64
X148.59Y-43.18
X148.59Y-45.72
X148.59Y-48.26
X148.59Y-50.8
X149.86Y-88.9
X152.4Y-66.04
X152.4Y-88.9
X154.94Y-66.04
X154.94Y-88.9
X157.48Y-66.04
X157.48Y-88.9
X160.02Y-66.04
X160.02Y-88.9
X162.56Y-66.04
X162.56Y-88.9
X171.45Y-33.02
X171.45Y-35.56
X171.45Y-38.1
X171.45Y-40.64
X171.45Y-43.18
X171.45Y-45.72
X171.45Y-48.26
X171.45Y-50.8
T6
X37.465Y-45.72
X37.465Y-48.26
X37.465Y-50.8
T5
X30.86Y-32.861G85X30.86Y-34.861
G05
X36.56Y-30.861G85X34.56Y-30.861
G05
X36.56Y-36.861G85X34.56Y-36.861
G05
M30
